<?xml version="1.0" standalone="no"?>
<!DOCTYPE svg PUBLIC "-//W3C//DTD SVG 20010904//EN"
 "http://www.w3.org/TR/2001/REC-SVG-20010904/DTD/svg10.dtd">
<svg version="1.0" xmlns="http://www.w3.org/2000/svg"
 width="480.000000pt" height="540.000000pt" viewBox="0 0 480.000000 540.000000"
 preserveAspectRatio="xMidYMid meet">

<g transform="translate(0.000000,540.000000) scale(0.100000,-0.100000)"
fill="#000000" stroke="none">
<path d="M3050 5133 c74 -56 188 -180 223 -243 53 -96 69 -171 71 -334 1 -94
5 -141 12 -143 16 -5 22 109 13 224 -13 153 -67 277 -171 390 -47 50 -154 133
-171 133 -7 -1 4 -13 23 -27z"/>
<path d="M3270 5079 c0 -4 18 -33 39 -66 45 -66 86 -180 96 -265 8 -65 25 -79
25 -20 0 60 -28 161 -62 223 -28 54 -97 143 -98 128z"/>
<path d="M2411 4813 c-14 -54 -18 -152 -6 -153 6 0 13 28 17 62 4 35 9 78 12
96 7 44 -11 40 -23 -5z"/>
<path d="M2679 4747 c35 -100 113 -229 175 -286 44 -41 29 -8 -46 106 -40 60
-86 137 -102 171 -36 76 -52 81 -27 9z"/>
<path d="M2700 4561 c0 -14 91 -81 110 -80 9 0 0 12 -20 29 -48 40 -90 63 -90
51z"/>
<path d="M2595 4385 c-133 -59 -165 -77 -165 -94 0 -19 27 -61 39 -61 5 0 36
20 69 44 61 45 117 108 110 125 -1 5 -25 -1 -53 -14z"/>
<path d="M3191 4353 c-1 -23 6 -91 14 -150 8 -59 21 -177 29 -262 8 -84 18
-156 22 -160 19 -17 -25 491 -50 569 l-14 45 -1 -42z"/>
<path d="M1412 4369 c-167 -4 -305 -9 -306 -11 -2 -2 31 -160 74 -353 l76
-350 405 -3 406 -2 -86 365 -86 365 -90 -2 c-49 -1 -227 -5 -393 -9z m253 -69
c0 -22 -78 -30 -292 -33 -133 -1 -185 1 -194 10 -7 7 -9 16 -5 20 8 8 277 21
411 19 64 -1 80 -4 80 -16z m-168 -93 c3 -4 0 -13 -7 -22 -21 -26 -306 -17
-297 9 2 6 26 14 53 18 58 7 242 4 251 -5z m215 -105 c6 -6 7 -16 3 -23 -6 -9
-56 -11 -219 -5 -235 7 -266 11 -266 34 0 13 28 14 236 10 140 -4 240 -10 246
-16z m-217 -103 c4 -6 4 -13 0 -17 -7 -7 -236 -4 -243 3 -2 2 -1 8 3 14 8 15
232 15 240 0z"/>
<path d="M3287 4183 c-11 -156 -9 -219 5 -205 15 15 25 302 11 302 -6 0 -13
-44 -16 -97z"/>
<path d="M2575 4214 c-64 -28 -103 -58 -87 -68 5 -3 20 3 33 13 13 10 48 30
77 45 48 24 63 37 45 36 -5 -1 -35 -12 -68 -26z"/>
<path d="M488 4136 c-201 -6 -369 -14 -372 -17 -7 -7 118 -747 127 -756 7 -7
897 24 905 31 5 5 -117 592 -149 719 l-10 37 -67 -2 c-37 -1 -232 -6 -434 -12z
m238 -76 c17 -7 24 -14 18 -20 -10 -10 -549 -18 -559 -8 -9 9 23 18 97 27 94
12 412 13 444 1z m-178 -107 c-3 -16 -19 -18 -128 -21 -132 -3 -210 3 -210 18
0 15 30 18 188 19 141 1 153 0 150 -16z m238 -74 c3 -6 2 -15 -2 -19 -14 -14
-515 -16 -539 -3 -16 9 -17 13 -5 17 8 2 22 7 30 9 32 11 509 7 516 -4z m-182
-87 c2 -4 1 -14 -3 -21 -7 -11 -45 -13 -179 -9 -94 2 -174 6 -177 10 -4 4 -4
11 0 17 7 13 351 15 359 3z"/>
<path d="M2566 4122 c-7 -12 32 -48 41 -38 8 8 -8 38 -24 43 -6 2 -14 0 -17
-5z"/>
<path d="M3664 3961 c-112 -53 -251 -207 -319 -353 -35 -75 -31 -88 13 -43 70
71 161 94 303 76 64 -9 104 -21 167 -53 45 -22 85 -39 88 -36 21 22 -61 75
-160 103 -73 21 -257 16 -324 -8 l-42 -16 51 76 c76 111 165 196 255 239 41
19 74 37 74 40 0 13 -53 0 -106 -25z"/>
<path d="M1482 3393 c-108 -3 -143 -7 -139 -16 2 -7 56 -202 118 -434 l114
-422 390 6 c215 3 404 8 421 12 l30 6 -130 427 -131 428 -265 -2 c-146 -2
-330 -4 -408 -5z m476 -60 c-3 -16 -21 -19 -138 -26 -232 -13 -368 -13 -381 0
-7 7 -9 16 -5 20 8 8 200 18 404 21 113 2 123 0 120 -15z m-113 -102 c0 -20
-42 -29 -161 -37 -134 -9 -256 7 -233 31 6 5 330 24 374 21 11 0 20 -7 20 -15z
m-79 -92 c13 -22 -17 -31 -119 -36 -114 -6 -157 0 -157 22 0 17 31 21 167 23
64 1 104 -2 109 -9z m278 -108 c13 -20 -27 -30 -173 -41 -197 -15 -357 -4
-348 23 6 20 510 37 521 18z"/>
<path d="M3325 3195 c-22 -8 -41 -15 -42 -15 -2 0 -3 -7 -3 -16 0 -15 2 -15
24 -1 49 33 92 32 162 -3 106 -52 176 -125 237 -248 l52 -105 -2 -406 c-3
-462 -16 -745 -35 -769 -14 -17 -145 -82 -165 -82 -30 0 -5 -21 137 -118 l150
-103 0 58 c0 32 -4 74 -9 93 -10 34 -9 33 42 -25 112 -129 247 -261 362 -353
140 -113 281 -246 320 -303 16 -21 30 -37 32 -35 22 21 -74 128 -307 341 -173
158 -440 451 -298 326 71 -62 182 -131 211 -131 27 0 29 2 22 28 -8 32 -56
116 -182 315 -106 166 -156 265 -151 299 2 17 14 27 48 38 70 24 88 37 100 74
14 44 4 70 -78 194 -91 138 -103 177 -112 367 -8 170 -22 231 -64 270 -11 11
-47 59 -79 107 -63 95 -87 117 -187 171 -79 43 -131 52 -185 32z"/>
<path d="M3273 2700 c-43 -224 -46 -245 -34 -268 8 -15 7 -23 -5 -33 -9 -7
-20 -22 -24 -34 -6 -15 -45 -34 -151 -74 -180 -68 -271 -113 -292 -144 -9 -14
-36 -30 -69 -41 -86 -27 -86 -27 -48 -90 19 -31 44 -68 55 -82 21 -26 23 -26
71 -15 27 6 92 13 144 16 65 3 143 17 245 43 136 34 151 41 163 65 13 27 8
220 -17 692 l-6 130 -32 -165z"/>
<path d="M1572 2212 c-46 -20 -87 -44 -92 -52 -12 -21 64 -132 352 -515 l234
-310 49 2 c28 1 194 26 370 55 l320 53 -112 9 -113 9 6 106 5 106 -19 -22
c-13 -15 -24 -50 -32 -107 -11 -77 -14 -85 -36 -90 -14 -4 -29 -4 -34 -1 -5 3
-50 -1 -102 -9 -85 -14 -175 -20 -222 -17 -13 1 -16 6 -12 18 6 14 2 12 -17
-5 l-23 -22 -21 22 c-18 21 -83 108 -381 516 -62 83 -112 156 -112 160 0 10
105 72 122 71 7 0 60 -57 118 -127 380 -457 430 -514 430 -486 0 18 -569 674
-584 673 -6 0 -48 -17 -94 -37z"/>
<path d="M3300 1965 c0 -18 108 -139 158 -177 55 -41 66 -38 58 21 -4 30 -2
52 4 56 16 10 12 50 -8 68 -25 22 -117 33 -138 16 -14 -11 -19 -10 -34 9 -21
25 -40 29 -40 7z"/>
<path d="M650 639 c487 -85 1091 -165 1565 -209 493 -45 1136 -63 1471 -41
504 33 880 126 1039 256 l30 25 -77 0 c-43 0 -80 -5 -83 -10 -5 -8 -11 -7 -21
0 -10 9 -18 6 -36 -14 -16 -19 -46 -32 -103 -47 -69 -18 -128 -22 -440 -30
-249 -6 -383 -6 -435 1 -100 15 -380 68 -449 86 -64 16 -144 18 -171 4 -34
-18 -154 -38 -325 -55 -93 -8 -211 -20 -260 -25 -117 -12 -181 -2 -298 50
l-92 40 -740 -1 -740 -1 165 -29z"/>
</g>
</svg>
